<svg xmlns="http://www.w3.org/2000/svg" version="1.1" xmlns:xlink="http://www.w3.org/1999/xlink" width="2000" height="165" viewBox="0 0 2000 165"><svg xml:space="preserve" width="2000" height="165" data-version="2" data-id="lg_7RbNcdnALYouYzItUh" viewBox="0 0 548 165" x="0" y="0"><rect width="100%" height="100%" fill="transparent"></rect><path fill="#fff" d="m294.02 155.764-11.06 7.62-5.16-11.06 94.1-135.12 10.56-2.95 11.8-10.57 5.16 11.31-96.31 136.84zm101.22 7.62H282.96l13.51-18.18 97.54-.49zm0 0-18.43-8.6 10.57-38.82 14.25 1.97q-.99 11.3-2.58 22.48-1.6 11.18-3.81 22.97m-95.08-114.98h-13.27q-1.23-7.62-1.96-16.46-.74-8.85-.74-16.59 0-7.73.25-11.67l19.65 11.06zm83.53-29.97-95.08 3.44-4.17-18.19h109.82zm51.35 137.33-11.06 7.62-5.16-11.06 94.1-135.12 10.56-2.95 11.8-10.57 5.16 11.31-96.31 136.84zm101.22 7.62H423.98l13.52-18.18 97.53-.49zm0 0-18.43-8.6 10.57-38.82 14.25 1.97q-.98 11.3-2.58 22.48t-3.81 22.97m-95.08-114.98h-13.27q-1.22-7.62-1.96-16.46-.74-8.85-.74-16.59 0-7.73.25-11.67l19.65 11.06zm83.53-29.97-95.08 3.44-4.17-18.19h109.82zM86.781 85.456a8.044 8.044 0 1 1 16.088 0 8.044 8.044 0 0 1-16.088 0m39.396 45.166a18.305 18.305 0 0 1-26.89 1.023 5.075 5.075 0 0 1 7.192-7.163 8.414 8.414 0 0 0 11.995-.455 5.07 5.07 0 0 1 7.703 6.595m6.281-37.122a8.044 8.044 0 1 1 0-16.088 8.044 8.044 0 0 1 0 16.088"></path><circle r="2.83" fill="#fff" transform="translate(94.825 85.457)scale(2.8424)"></circle><circle r="2.83" fill="#fff" transform="translate(132.459 85.457)scale(2.8424)"></circle><path fill="#fff" d="M50.768 95.49h-.398c4.548 36.269 30.698 64.181 62.22 64.181h.2c-31.438-.114-57.503-27.997-62.022-64.181"></path><path fill="#fff" d="M112.79 159.671h.198c31.522 0 57.7-27.912 62.22-64.181h-.37c-4.547 36.184-30.612 64.067-62.049 64.181m5.713-35.644a8.414 8.414 0 0 1-12.023.455 5.075 5.075 0 1 0-7.191 7.163 18.277 18.277 0 0 0 26.889-1.023 5.06 5.06 0 1 0-7.675-6.595M184.56 52.74l22.114-4.804-15.236-16.77zl22.114-4.804-15.236-16.77z"></path><path fill="#fff" d="M176.06 36.311c-9.379-24.501-35.87-37.946-63.243-34.024-27.4-3.922-53.948 9.523-63.3 34.024C38.49 65.247-16.824 74.115 15.21 86.366c9.267 3.524 23.763 9.493 35.19 9.124h.369c4.52 36.184 30.584 64.067 62.021 64.181 31.437-.114 57.53-27.997 62.05-64.181h.37c11.369.37 25.865-5.6 35.16-9.096 32.033-12.25-23.28-21.147-34.308-50.083m-63.073 113.241h-.398c-29.106 0-52.755-29.277-52.755-65.233q0-7.532 1.364-14.553c4.804 3.41 12.791 3.98 21.034 3.354l.91-.682c10.29-7.56 18.646-7.731 29.646-5.23 11-2.501 19.328-2.33 29.646 5.23l.881.682c8.243.654 16.259.057 21.063-3.354q1.307 7.02 1.364 14.553c0 35.956-23.649 65.233-52.755 65.233m63.954-81.662-8.811-14.269 16.77-.483z"></path></svg></svg>