{
  "accessors": [
    {
      "bufferView": 2,
      "componentType": 5126,
      "count": 7308,
      "max": [
        12.528950691223145,
        0.2874619960784912,
        0.07713600248098373
      ],
      "min": [
        -1.9517370462417603,
        -2.859631061553955,
        -0.35071301460266113
      ],
      "type": "VEC3"
    },
    {
      "bufferView": 2,
      "byteOffset": 87696,
      "componentType": 5126,
      "count": 7308,
      "max": [
        1.0,
        1.0,
        1.0
      ],
      "min": [
        -1.0,
        -1.0,
        -1.0
      ],
      "type": "VEC3"
    },
    {
      "bufferView": 3,
      "componentType": 5126,
      "count": 7308,
      "max": [
        1.0,
        1.0,
        1.0,
        1.0
      ],
      "min": [
        -1.0,
        -1.0,
        -1.0,
        1.0
      ],
      "type": "VEC4"
    },
    {
      "bufferView": 1,
      "componentType": 5126,
      "count": 7308,
      "max": [
        0.9989539980888367,
        0.9981449842453003
      ],
      "min": [
        0.0010460000485181808,
        0.0010460000485181808
      ],
      "type": "VEC2"
    },
    {
      "bufferView": 0,
      "componentType": 5125,
      "count": 21168,
      "type": "SCALAR"
    },
    {
      "bufferView": 2,
      "byteOffset": 175392,
      "componentType": 5126,
      "count": 31820,
      "max": [
        12.905391693115234,
        0.28313198685646057,
        0.07713600248098373
      ],
      "min": [
        -1.6254600286483765,
        -3.823240041732788,
        -0.35071301460266113
      ],
      "type": "VEC3"
    },
    {
      "bufferView": 2,
      "byteOffset": 557232,
      "componentType": 5126,
      "count": 31820,
      "max": [
        1.0,
        1.0,
        1.0
      ],
      "min": [
        -1.0,
        -1.0,
        -1.0
      ],
      "type": "VEC3"
    },
    {
      "bufferView": 3,
      "byteOffset": 116928,
      "componentType": 5126,
      "count": 31820,
      "max": [
        1.0,
        1.0,
        1.0,
        1.0
      ],
      "min": [
        -1.0,
        -1.0,
        -1.0,
        1.0
      ],
      "type": "VEC4"
    },
    {
      "bufferView": 1,
      "byteOffset": 58464,
      "componentType": 5126,
      "count": 31820,
      "max": [
        0.9976879954338074,
        0.9978839755058289
      ],
      "min": [
        0.002116000046953559,
        0.002116000046953559
      ],
      "type": "VEC2"
    },
    {
      "bufferView": 0,
      "byteOffset": 84672,
      "componentType": 5125,
      "count": 91848,
      "type": "SCALAR"
    },
    {
      "bufferView": 2,
      "byteOffset": 939072,
      "componentType": 5126,
      "count": 152,
      "max": [
        7.605783939361572,
        2.412761926651001,
        0.0
      ],
      "min": [
        -7.635168075561523,
        -2.613110065460205,
        -0.3367849886417389
      ],
      "type": "VEC3"
    },
    {
      "bufferView": 2,
      "byteOffset": 940896,
      "componentType": 5126,
      "count": 152,
      "max": [
        0.9914447665214539,
        0.9914448857307434,
        1.0
      ],
      "min": [
        -0.9914453625679016,
        -0.9914448857307434,
        -1.0
      ],
      "type": "VEC3"
    },
    {
      "bufferView": 3,
      "byteOffset": 626048,
      "componentType": 5126,
      "count": 152,
      "max": [
        0.5604496002197266,
        1.0,
        1.0,
        1.0
      ],
      "min": [
        -0.13255523145198822,
        -1.0,
        -1.0,
        1.0
      ],
      "type": "VEC4"
    },
    {
      "bufferView": 1,
      "byteOffset": 313024,
      "componentType": 5126,
      "count": 152,
      "max": [
        0.8049359917640686,
        0.9998329877853394
      ],
      "min": [
        0.00016700000560376793,
        0.00016700000560376793
      ],
      "type": "VEC2"
    },
    {
      "bufferView": 0,
      "byteOffset": 452064,
      "componentType": 5125,
      "count": 420,
      "type": "SCALAR"
    }
  ],
  "asset": {
    "extras": {
      "author": "gozdemrl (https://sketchfab.com/gozdemrl)",
      "license": "CC-BY-4.0 (http://creativecommons.org/licenses/by/4.0/)",
      "source": "https://sketchfab.com/3d-models/retro-keyboard-76aa2c3361e9471cb62b4b7fee5ecce8",
      "title": "Retro Keyboard"
    },
    "generator": "Sketchfab-13.62.0",
    "version": "2.0"
  },
  "bufferViews": [
    {
      "buffer": 0,
      "byteLength": 453744,
      "name": "floatBufferViews",
      "target": 34963
    },
    {
      "buffer": 0,
      "byteLength": 314240,
      "byteOffset": 453744,
      "byteStride": 8,
      "name": "floatBufferViews",
      "target": 34962
    },
    {
      "buffer": 0,
      "byteLength": 942720,
      "byteOffset": 767984,
      "byteStride": 12,
      "name": "floatBufferViews",
      "target": 34962
    },
    {
      "buffer": 0,
      "byteLength": 628480,
      "byteOffset": 1710704,
      "byteStride": 16,
      "name": "floatBufferViews",
      "target": 34962
    }
  ],
  "buffers": [
    {
      "byteLength": 2339184,
      "uri": "scene.bin"
    }
  ],
  "images": [
    {
      "uri": "textures/keyboard_baseColor.jpeg"
    },
    {
      "uri": "textures/keyboard_metallicRoughness.png"
    },
    {
      "uri": "textures/keyboard_normal.png"
    },
    {
      "uri": "textures/little_key_baseColor.jpeg"
    },
    {
      "uri": "textures/little_key_metallicRoughness.png"
    },
    {
      "uri": "textures/little_key_emissive.jpeg"
    },
    {
      "uri": "textures/little_key_normal.png"
    },
    {
      "uri": "textures/big_key_baseColor.jpeg"
    },
    {
      "uri": "textures/big_key_metallicRoughness.png"
    },
    {
      "uri": "textures/big_key_emissive.jpeg"
    },
    {
      "uri": "textures/big_key_normal.png"
    }
  ],
  "materials": [
    {
      "doubleSided": true,
      "name": "keyboard",
      "normalTexture": {
        "index": 2
      },
      "occlusionTexture": {
        "index": 1
      },
      "pbrMetallicRoughness": {
        "baseColorTexture": {
          "index": 0
        },
        "metallicRoughnessTexture": {
          "index": 1
        }
      }
    },
    {
      "doubleSided": true,
      "emissiveFactor": [
        1.0,
        1.0,
        1.0
      ],
      "emissiveTexture": {
        "index": 5
      },
      "name": "little_key",
      "normalTexture": {
        "index": 6
      },
      "occlusionTexture": {
        "index": 4
      },
      "pbrMetallicRoughness": {
        "baseColorTexture": {
          "index": 3
        },
        "metallicRoughnessTexture": {
          "index": 4
        }
      }
    },
    {
      "doubleSided": true,
      "emissiveFactor": [
        1.0,
        1.0,
        1.0
      ],
      "emissiveTexture": {
        "index": 9
      },
      "name": "big_key",
      "normalTexture": {
        "index": 10
      },
      "occlusionTexture": {
        "index": 8
      },
      "pbrMetallicRoughness": {
        "baseColorTexture": {
          "index": 7
        },
        "metallicRoughnessTexture": {
          "index": 8
        }
      }
    }
  ],
  "meshes": [
    {
      "name": "defaultMaterial",
      "primitives": [
        {
          "attributes": {
            "NORMAL": 1,
            "POSITION": 0,
            "TANGENT": 2,
            "TEXCOORD_0": 3
          },
          "indices": 4,
          "material": 2,
          "mode": 4
        }
      ]
    },
    {
      "name": "defaultMaterial",
      "primitives": [
        {
          "attributes": {
            "NORMAL": 6,
            "POSITION": 5,
            "TANGENT": 7,
            "TEXCOORD_0": 8
          },
          "indices": 9,
          "material": 1,
          "mode": 4
        }
      ]
    },
    {
      "name": "defaultMaterial",
      "primitives": [
        {
          "attributes": {
            "NORMAL": 11,
            "POSITION": 10,
            "TANGENT": 12,
            "TEXCOORD_0": 13
          },
          "indices": 14,
          "material": 0,
          "mode": 4
        }
      ]
    }
  ],
  "nodes": [
    {
      "children": [
        1
      ],
      "matrix": [
        1.0,
        0.0,
        0.0,
        0.0,
        0.0,
        2.220446049250313e-16,
        -1.0,
        0.0,
        0.0,
        1.0,
        2.220446049250313e-16,
        0.0,
        0.0,
        0.0,
        0.0,
        1.0
      ],
      "name": "Sketchfab_model"
    },
    {
      "children": [
        2,
        4,
        6
      ],
      "matrix": [
        1.0,
        0.0,
        0.0,
        0.0,
        0.0,
        -4.371139006309477e-08,
        0.999999999999999,
        0.0,
        0.0,
        -0.999999999999999,
        -4.371139006309477e-08,
        0.0,
        0.0,
        0.0,
        0.0,
        1.0
      ],
      "name": "Collada visual scene group"
    },
    {
      "children": [
        3
      ],
      "matrix": [
        -100.0,
        0.0,
        3.9e-05,
        0.0,
        3.9e-05,
        8e-06,
        100.0,
        0.0,
        0.0,
        100.0,
        -8e-06,
        0.0,
        531.791504,
        131.6931,
        183.668259,
        1.0
      ],
      "name": "Cylinder.102"
    },
    {
      "mesh": 0,
      "name": "defaultMaterial"
    },
    {
      "children": [
        5
      ],
      "matrix": [
        100.0,
        0.0,
        0.0,
        0.0,
        0.0,
        -1.6e-05,
        -100.0,
        0.0,
        0.0,
        100.0,
        -1.6e-05,
        0.0,
        -561.041748,
        131.65564,
        -170.527313,
        1.0
      ],
      "name": "Cylinder.078"
    },
    {
      "mesh": 1,
      "name": "defaultMaterial"
    },
    {
      "children": [
        7
      ],
      "matrix": [
        100.0,
        0.0,
        0.0,
        0.0,
        0.0,
        -1.6e-05,
        -100.0,
        0.0,
        0.0,
        100.0,
        -1.6e-05,
        0.0,
        0.0,
        101.897141,
        0.0,
        1.0
      ],
      "name": "Plane"
    },
    {
      "mesh": 2,
      "name": "defaultMaterial"
    }
  ],
  "samplers": [
    {
      "magFilter": 9729,
      "minFilter": 9987,
      "wrapS": 10497,
      "wrapT": 10497
    }
  ],
  "scene": 0,
  "scenes": [
    {
      "name": "Sketchfab_Scene",
      "nodes": [
        0
      ]
    }
  ],
  "textures": [
    {
      "sampler": 0,
      "source": 0
    },
    {
      "sampler": 0,
      "source": 1
    },
    {
      "sampler": 0,
      "source": 2
    },
    {
      "sampler": 0,
      "source": 3
    },
    {
      "sampler": 0,
      "source": 4
    },
    {
      "sampler": 0,
      "source": 5
    },
    {
      "sampler": 0,
      "source": 6
    },
    {
      "sampler": 0,
      "source": 7
    },
    {
      "sampler": 0,
      "source": 8
    },
    {
      "sampler": 0,
      "source": 9
    },
    {
      "sampler": 0,
      "source": 10
    }
  ]
}
